PathFileType	4	(X/Y/Z)	./resultDataOpenSim/trcMotMarkerGrf/sub09/qtm-14-01.trc
DataRate	CameraRate	NumFrames	NumMarkers	Units	OrigDataRate	OrigDataStartFrame	OrigNumFrames
250.000000	250.000000	14	24	m	250.000000	64	507
Frame#	Time	L.Toe.Tip			R.Toe.Tip			L.Ankle.Lat			R.Ankle.Lat			L.Ankle.Med			R.Ankle.Med			L.Heel			R.Heel			L.Knee.Lat			R.Knee.Lat			L.Knee.Med			R.Knee.Med			L.Thigh.Upper			R.Thigh.Upper			L.ASIS			R.ASIS			V.Sacral			L.Acromium			R.Acromium			C7			L.Elbow			R.Elbow			L.Wrist.Lat			R.Wrist.Lat
		X1	Y1	Z1	X2	Y2	Z2	X3	Y3	Z3	X4	Y4	Z4	X5	Y5	Z5	X6	Y6	Z6	X7	Y7	Z7	X8	Y8	Z8	X9	Y9	Z9	X10	Y10	Z10	X11	Y11	Z11	X12	Y12	Z12	X13	Y13	Z13	X14	Y14	Z14	X15	Y15	Z15	X16	Y16	Z16	X17	Y17	Z17	X18	Y18	Z18	X19	Y19	Z19	X20	Y20	Z20	X21	Y21	Z21	X22	Y22	Z22	X23	Y23	Z23	X24	Y24	Z24

64	0.252	-1.3161664	0.10059782	-0.065188588	-0.64648769	0.039372137	0.054267499	-1.3408326	0.25887989	-0.095605949	-0.79456847	0.053656316	0.088614508	-1.3129119	0.23498168	-0.0039050177	-0.78109545	0.094360896	-0.00062910748	-1.4022172	0.29852855	-0.038427314	-0.86120604	0.031331855	0.038047113	-0.97058213	0.43180442	-0.13553896	-0.73618517	0.50299905	0.16052117	-0.95570627	0.41403512	-0.010898634	-0.75351088	0.49351491	0.03420102	-0.96561148	0.83862228	-0.14156391	-0.91109122	0.86894231	0.22745688	-0.86905724	0.92432999	-0.098224562	-0.84074208	0.95445022	0.14176387	-1.0251431	0.99535201	0.034669455	-0.86006024	1.3930625	-0.13414104	-0.87567661	1.397413	0.19510533	-0.93459842	1.4487218	0.029198201	-0.97033472	1.0331173	-0.20141415	-1.0155551	1.0631128	0.26658605	-0.74313308	0.88579002	-0.19406173	-0.89998119	0.81730638	0.30179346
65	0.256	-1.3014625	0.10172165	-0.06703063	-0.64654435	0.039381212	0.054381759	-1.3275093	0.25962806	-0.095974661	-0.7946963	0.0536617	0.088683641	-1.3000054	0.23540515	-0.0041281198	-0.78098751	0.094425257	-0.00051898047	-1.3897234	0.29836503	-0.037970762	-0.86125357	0.031378008	0.038005885	-0.95800246	0.43294567	-0.13493655	-0.73384208	0.50264267	0.16087664	-0.94301881	0.41506018	-0.010261151	-0.75113486	0.49344605	0.034641546	-0.95955863	0.83988902	-0.14159406	-0.90602459	0.87042051	0.22753482	-0.86358321	0.92585946	-0.098065267	-0.83489025	0.95582623	0.1418511	-1.0196611	0.99683481	0.035084341	-0.85491925	1.3945273	-0.13421331	-0.86973239	1.3988101	0.19516937	-0.92888945	1.4501648	0.029408573	-0.96544502	1.0347366	-0.20064355	-1.0089067	1.0639377	0.26696963	-0.74016502	0.88483621	-0.19451464	-0.89095287	0.81897503	0.30153762
66	0.26	-1.2864565	0.10265778	-0.068740983	-0.64660265	0.039375039	0.054511138	-1.3141673	0.26009727	-0.096292297	-0.79481918	0.053666995	0.088767548	-1.2872828	0.23557016	-0.0042278901	-0.78087813	0.094494523	-0.00038535251	-1.377045	0.29795291	-0.037931231	-0.86128846	0.031426928	0.037968488	-0.94547764	0.43420329	-0.13431303	-0.73145139	0.50226241	0.16110738	-0.9304446	0.41625791	-0.0095832783	-0.74877917	0.49340793	0.034962721	-0.95352334	0.84120762	-0.14166595	-0.90174989	0.87184397	0.22750549	-0.85811978	0.92746095	-0.097867961	-0.82951494	0.95717583	0.14191666	-1.0142171	0.99834549	0.035505638	-0.84980124	1.3960568	-0.1342804	-0.86383572	1.4002602	0.19522969	-0.92320958	1.4516337	0.029582854	-0.96062101	1.0364066	-0.19994999	-1.0023409	1.0648161	0.26734201	-0.73730298	0.88395216	-0.19494357	-0.8819528	0.82075221	0.30128158
67	0.264	-1.2711407	0.10339887	-0.070319726	-0.64665971	0.039366324	0.054651311	-1.3008158	0.26029869	-0.096558109	-0.79492665	0.053670626	0.088857458	-1.274615	0.23548759	-0.0042454012	-0.78078363	0.094571247	-0.00022661474	-1.3642807	0.29737109	-0.038429045	-0.8613098	0.031481398	0.037929209	-0.93308083	0.43557885	-0.13368941	-0.72902093	0.50187383	0.16122973	-0.91798475	0.41762205	-0.0088594986	-0.74652796	0.49339652	0.035255518	-0.9473589	0.84258391	-0.14162184	-0.89820108	0.87321075	0.2273792	-0.85262698	0.92914151	-0.097635643	-0.82457823	0.95850167	0.14197227	-1.0087888	0.99988188	0.035927538	-0.84470504	1.3976437	-0.13434068	-0.85798456	1.401762	0.1952881	-0.91754865	1.4531227	0.029723178	-0.95588091	1.0381484	-0.19926639	-0.99583192	1.0657418	0.26769241	-0.73454481	0.88315024	-0.19534666	-0.87298853	0.82263544	0.30102453
68	0.268	-1.2554919	0.10394564	-0.071769856	-0.64671605	0.039367928	0.054803047	-1.2873829	0.2602427	-0.096814002	-0.79501262	0.053671775	0.088942374	-1.2614765	0.23520034	-0.0043673988	-0.78071643	0.094661439	-4.3787313e-05	-1.351477	0.29656589	-0.039239222	-0.86131943	0.031544423	0.03788837	-0.92084208	0.43707786	-0.13307156	-0.72665239	0.50152324	0.16130004	-0.90560728	0.41915025	-0.0081119687	-0.74442296	0.49339752	0.035569481	-0.94097972	0.84400433	-0.14142102	-0.894665	0.8745762	0.22727222	-0.8470592	0.93089147	-0.097366652	-0.81977308	0.9598215	0.14205767	-1.0033565	1.0014652	0.036367556	-0.83964232	1.3992854	-0.13439788	-0.85218406	1.4033106	0.19534327	-0.91190207	1.4546346	0.029835614	-0.95125705	1.0399706	-0.19857448	-0.989343	1.0667059	0.2680129	-0.73188604	0.88243502	-0.19572826	-0.86407417	0.82461973	0.30075932
69	0.272	-1.239514	0.10431199	-0.073087227	-0.64677645	0.039381968	0.054968624	-1.2738049	0.25992814	-0.097096439	-0.79509353	0.053676805	0.089024255	-1.2473918	0.23476289	-0.0047732009	-0.7806797	0.09476617	0.00015434146	-1.3386309	0.29541393	-0.040012596	-0.86132263	0.031614892	0.037851622	-0.90867737	0.43870077	-0.13243638	-0.72447694	0.50124589	0.16140627	-0.89328911	0.4208353	-0.007368408	-0.74243903	0.49338571	0.035886336	-0.93438718	0.84543298	-0.14128022	-0.89034894	0.87600676	0.22731227	-0.84140717	0.93269423	-0.097059898	-0.81479628	0.96115297	0.14220336	-0.99791683	1.0030966	0.036849325	-0.83463502	1.4009827	-0.1344683	-0.84643202	1.4048995	0.19539092	-0.90627984	1.4561747	0.029923271	-0.94674186	1.0418645	-0.19787919	-0.98284216	1.0677046	0.2683029	-0.72931557	0.88179741	-0.19609622	-0.85520702	0.82670893	0.30047702
70	0.276	-1.2232682	0.1045004	-0.074258361	-0.64684558	0.039403107	0.055145067	-1.2600619	0.25934818	-0.097415341	-0.79521001	0.053698153	0.089119777	-1.2326018	0.23419271	-0.0053949083	-0.78067233	0.094879944	0.00035340555	-1.3257182	0.2938672	-0.040638237	-0.86132633	0.031687693	0.037824803	-0.89640165	0.4404532	-0.13173972	-0.72252825	0.5010274	0.16160293	-0.88101987	0.4226638	-0.0066298467	-0.7405597	0.49334233	0.036189537	-0.92771923	0.84686832	-0.14149157	-0.88511449	0.87751942	0.22751881	-0.83573279	0.93454106	-0.096722961	-0.80958875	0.9625019	0.14240995	-0.99247622	1.0047487	0.037363394	-0.8297043	1.4027306	-0.13456939	-0.84070646	1.4065213	0.19542826	-0.90071628	1.457737	0.029976331	-0.94223635	1.0438017	-0.19717961	-0.97631405	1.068744	0.26856953	-0.72682287	0.88122392	-0.19645916	-0.84635294	0.82891692	0.30017287
71	0.28	-1.2068489	0.10448116	-0.075258047	-0.64692551	0.039426417	0.055323797	-1.2461736	0.25850122	-0.097756273	-0.79539177	0.05373989	0.089242495	-1.2178493	0.23345545	-0.0059926069	-0.7806924	0.094996275	0.00054496659	-1.3127132	0.29196382	-0.041234452	-0.8613371	0.031756916	0.037809722	-0.88393549	0.44235099	-0.13096462	-0.72073356	0.50083028	0.16187057	-0.86878412	0.42464276	-0.0058668098	-0.73880794	0.49326766	0.03649091	-0.9212166	0.84836447	-0.14204594	-0.87938853	0.87908179	0.22781759	-0.8301172	0.93642879	-0.096369033	-0.80426793	0.96386429	0.14266205	-0.98704209	1.0063855	0.037855258	-0.82484229	1.4045102	-0.13469679	-0.83497794	1.4081723	0.19545163	-0.89526162	1.4593083	0.029977686	-0.9375932	1.04575	-0.19646528	-0.96975287	1.0698282	0.26882044	-0.72440623	0.88070895	-0.19682428	-0.83745781	0.83124843	0.2998494
72	0.284	-1.1903462	0.10421299	-0.076045854	-0.64702016	0.039450585	0.055500881	-1.2321717	0.25739057	-0.098110165	-0.79560272	0.053780824	0.089373106	-1.2035356	0.23250987	-0.0064409695	-0.78073291	0.095112102	0.00073322849	-1.2996137	0.28974571	-0.041896551	-0.86136018	0.031821195	0.037807768	-0.87142559	0.44440257	-0.13015398	-0.71900303	0.50063495	0.16214479	-0.85660031	0.42682809	-0.0050377826	-0.73721006	0.49317767	0.036798967	-0.91501502	0.84997075	-0.14262653	-0.87362489	0.88064852	0.22812674	-0.82458795	0.93834991	-0.096008073	-0.79894798	0.96523009	0.14294654	-0.98161868	1.0079867	0.03827157	-0.81999759	1.4062975	-0.1348245	-0.82924162	1.4098544	0.19545798	-0.88991601	1.4608861	0.0299341	-0.93277329	1.0477018	-0.19573077	-0.96315582	1.0709468	0.26906019	-0.72206746	0.88025559	-0.19719603	-0.8284766	0.83368991	0.29951119
73	0.288	-1.1738081	0.10368497	-0.076600177	-0.64713932	0.039478688	0.055687396	-1.2180886	0.25601967	-0.098483814	-0.79575454	0.053787709	0.089465069	-1.1894897	0.23135518	-0.0067801864	-0.78078158	0.095227101	0.000929083	-1.2864332	0.28722355	-0.042594307	-0.86139816	0.03188261	0.037823608	-0.85904083	0.44661067	-0.1293801	-0.71729667	0.50044488	0.16237917	-0.84462129	0.42930786	-0.0040930077	-0.73576593	0.49309437	0.037100915	-0.90893512	0.85168902	-0.14295695	-0.8680764	0.88217977	0.22839858	-0.81912926	0.94028733	-0.095642386	-0.79366935	0.96658398	0.1432588	-0.97618978	1.0095665	0.038620061	-0.81511011	1.4080764	-0.13492906	-0.82351819	1.4115622	0.19545278	-0.88454146	1.4624756	0.029906365	-0.92794494	1.0496806	-0.19497984	-0.95654878	1.0720848	0.26930283	-0.7198016	0.87986946	-0.19757668	-0.81943555	0.83621347	0.29915721
74	0.292	-1.1571777	0.10294394	-0.076983807	-0.64729447	0.039518101	0.055904473	-1.2039749	0.25438892	-0.098873644	-0.79584641	0.053765342	0.089527038	-1.1753697	0.23001857	-0.0070821259	-0.78082898	0.095341465	0.0011387979	-1.2731753	0.28439949	-0.043264085	-0.8614492	0.031939758	0.037861839	-0.84680234	0.44897632	-0.12867338	-0.7156506	0.50028031	0.16258757	-0.83306511	0.43210454	-0.0029983839	-0.73443431	0.49303274	0.037371941	-0.90260987	0.85349294	-0.14295651	-0.86285743	0.88364129	0.22862203	-0.81371985	0.94221913	-0.095268552	-0.78842158	0.96791278	0.14359905	-0.97069699	1.0111678	0.038996272	-0.81015556	1.409838	-0.1350044	-0.81781452	1.4132754	0.19544489	-0.87892471	1.4640619	0.029974246	-0.92332864	1.051706	-0.19421671	-0.95000768	1.0732421	0.26958167	-0.7175979	0.87955428	-0.19796924	-0.8104829	0.83877205	0.2987787
75	0.296	-1.1402984	0.1020833	-0.077344963	-0.64748354	0.039572954	0.0561595	-1.1898733	0.25249714	-0.099259764	-0.79603417	0.053770757	0.089663542	-1.1610182	0.22850669	-0.0073763582	-0.78087099	0.095454388	0.0013558629	-1.2598236	0.28128905	-0.043911473	-0.86150691	0.031990385	0.037921504	-0.83468724	0.45145523	-0.12797289	-0.71419404	0.50018805	0.16284304	-0.8219137	0.43508631	-0.0018048951	-0.73314139	0.4929897	0.037603021	-0.89592746	0.8553466	-0.14271472	-0.85803857	0.88500834	0.22881124	-0.80831763	0.9441358	-0.094875716	-0.78318505	0.96921268	0.14396564	-0.96504361	1.0128236	0.039567069	-0.80514517	1.4115753	-0.13505924	-0.81210736	1.4149748	0.19543277	-0.87303156	1.4656211	0.030130694	-0.91896441	1.0537667	-0.19344676	-0.94360892	1.0744297	0.26992693	-0.7154475	0.87930529	-0.19838035	-0.80177416	0.84131766	0.29836115
76	0.3	-1.1230361	0.10119662	-0.077811597	-0.64767577	0.039631819	0.056426398	-1.1756988	0.25035312	-0.099637496	-0.79644472	0.053849201	0.089953319	-1.1465027	0.22679955	-0.0076539422	-0.78090353	0.095562463	0.0015624606	-1.2463318	0.27791023	-0.044601325	-0.86156041	0.032041317	0.037989849	-0.82271826	0.45396221	-0.12718168	-0.71313922	0.50024854	0.16323878	-0.81089699	0.43806435	-0.00062161813	-0.73182927	0.49295146	0.037816359	-0.88920249	0.85720871	-0.1424526	-0.85368809	0.88627362	0.2289852	-0.80282701	0.94604855	-0.094436143	-0.77795237	0.97048473	0.14435511	-0.95918265	1.0145178	0.040427328	-0.80009676	1.413286	-0.13510942	-0.80634779	1.4166594	0.19540662	-0.8671172	1.4671666	0.030241534	-0.91473716	1.0558388	-0.19269198	-0.93736097	1.075652	0.27033939	-0.71334161	0.87910343	-0.19881643	-0.79326773	0.84384791	0.29789248
77	0.304	-1.1054286	0.10031972	-0.078330697	-0.64782867	0.039674093	0.056663766	-1.1612196	0.24798111	-0.10002333	-0.79697746	0.053974819	0.090321179	-1.1319121	0.2248871	-0.0079019009	-0.78091997	0.095660674	0.001741531	-1.2326399	0.27426576	-0.045381805	-0.86159307	0.032109007	0.03803447	-0.81090744	0.45645616	-0.12627419	-0.71260598	0.50050702	0.16379829	-0.79984387	0.44096783	0.00049918011	-0.73050375	0.49290752	0.038037202	-0.88277603	0.85905386	-0.14235572	-0.84975104	0.8874517	0.22915113	-0.7971701	0.94796931	-0.093926741	-0.77272419	0.97172927	0.14476296	-0.95324879	1.0161895	0.041377567	-0.79501767	1.4149693	-0.13516948	-0.80043988	1.4183364	0.19535728	-0.86145113	1.468739	0.03018078	-0.91056797	1.0579101	-0.19200121	-0.93121276	1.0769016	0.27079792	-0.71125363	0.87893007	-0.19927309	-0.78473996	0.84640868	0.29737452
